<svg xmlns="http://www.w3.org/2000/svg" viewBox="0 0 36 36"><path d="M25.17 22.62c-.17.8-.03 1.65-.19 2.46-.26 1.27-.96 2.21-2.11 2.8-.73.38-1.79.56-3.19.54-4.55-.05-8.8.05-12.9-.09-.6-.02-1.11-.18-1.53-.48-1.75-1.22-2.22-2.36-2.21-4.34 0-3.24 0-6.39-.02-9.46 0-1.44.37-3.52 1.55-4.42.89-.68 1.65-1.02 2.28-1.02 4.39-.03 8.67-.04 12.86-.02 1.58 0 2.7.2 3.36.57 2.04 1.16 2.09 3.39 1.97 5.5 0 .08.06.14.14.14.03 0 .06 0 .09-.03 1.39-1.13 2.74-2.29 4.04-3.47.54-.48 1.25-1.05 2.03-.94 1.04.16 1.57.75 1.58 1.78.04 3.81.07 7.57.1 11.29 0 .82-.1 1.6-.31 2.34-.04.14-.13.27-.25.35-.83.56-1.64.6-2.41.13-1.57-.95-2.83-2.63-4.5-3.77-.19-.13-.32-.09-.36.14Zm-2.06-9.6c0-1.47-1.2-2.66-2.67-2.66l-12.77.02c-1.47 0-2.66 1.2-2.66 2.67l.02 10.87c0 1.47 1.2 2.66 2.67 2.66l12.77-.02c1.47 0 2.66-1.2 2.66-2.67l-.02-10.87Zm2.04 6.65c0 .09.04.17.1.22l5.29 4.42c.12.1.3.08.4-.04a.28.28 0 0 0 .06-.18l.03-11.25a.28.28 0 0 0-.28-.28c-.07 0-.13.02-.18.07l-5.3 4.39c-.06.05-.1.13-.1.22l-.02 2.44Z" style="fill:#fff;stroke-width:0"/></svg>