<svg xmlns="http://www.w3.org/2000/svg" viewBox="0 0 36 36"><path d="M14.46 16.27c.62 1.13 1.78 1.83 2.59 2.81.64.78 1.43 1.51 2.35 2.16.4.29.95.21 1.25-.17 1.36-1.67 3.02-1.8 4.96-.37 1.15.84 2.32 1.68 3.52 2.52 1.97 1.38.58 3.54-.55 4.82-1.3 1.47-2.94 2.11-4.92 1.94-3.68-.33-6.16-1.71-8.93-3.81-1.9-1.44-3.62-3.22-5.17-5.33-3.04-4.15-5.89-10.9-.49-14.32 1.4-.89 2.68-.65 3.84.72 1.15 1.36 2.15 2.84 3.01 4.44.99 1.86-.28 2.77-1.39 3.97a.53.53 0 0 0-.08.62ZM26.5 27.22c.93-.72 1.93-1.92.68-2.94-.89-.72-1.94-1.44-3.13-2.14-1.97-1.17-2.13 3.23-5.42 1.13-.52-.33-.99-.72-1.4-1.14-1.56-1.63-3.05-3.26-4.47-4.91-.72-.84-.67-2.16.2-2.91.41-.36.8-.73 1.15-1.13.21-.24.24-.6.05-.87L11.5 8.42a.852.852 0 0 0-1.1-.28c-2.81 1.42-2.98 4.66-1.81 7.22 2.64 5.79 6.97 9.92 12.98 12.4.53.22 1.62.25 3.27.1.64-.06 1.19-.27 1.65-.63Z" style="fill:#fff;stroke-width:0"/></svg>