<svg xmlns="http://www.w3.org/2000/svg" viewBox="0 0 72 72"><path fill="#fff" d="M21.2 32.44a.52.51 52.2 0 0-.07.63q6.85 11.07 17.81 17.78.33.2.6-.08l6.88-6.83a4.16 4.14 27.8 0 1 3.71-1.14l10.44 2.03a2.93 2.93 0 0 1 2.38 2.84q.09 6.04.01 12.2c-.03 2.14-1.77 3.22-3.76 3.12-20.57-1.06-37.24-13.86-46.02-32.23Q8.91 21.81 9.1 12.11q.06-3.05 3.37-3.09 6.84-.07 11.81.01a2.95 2.94 84.8 0 1 2.85 2.38l2.03 10.44a4.15 4.15 0 0 1-1.13 3.72l-6.83 6.87Zm.7-16.8a.77.77 0 0 0-.76-.64l-5.38-.03a.77.77 0 0 0-.75.96L17.45 26a.77.77 0 0 0 1.3.36l3.97-4.05a.77.77 0 0 0 .21-.67l-1.03-6Zm28.48 33.27a.83.83 0 0 0-.74.23l-4.01 3.95a.83.83 0 0 0 .38 1.4l9.95 2.48a.83.83 0 0 0 1.03-.8l.03-5.27a.83.83 0 0 0-.67-.82l-5.97-1.17Z"/></svg>