<svg xmlns="http://www.w3.org/2000/svg" viewBox="0 0 20 20"><path fill-rule="evenodd" clip-rule="evenodd" d="m16.6 8.2 1.2 1.2c.3.3.3.9 0 1.2l-1.2 1.2.4 1.6c.1.4-.1.9-.6 1l-1.6.4-.4 1.6c-.1.5-.6.7-1 .6l-1.6-.4-1.2 1.2-.6.2c-.2 0-.4 0-.6-.2l-1.2-1.2-1.6.4a.8.8 0 0 1-1-.6l-.4-1.6-1.6-.4a.8.8 0 0 1-.6-1l.4-1.6-1.2-1.2a.8.8 0 0 1 0-1.2l1.2-1.2L3 6.6c-.1-.4.1-.9.6-1l1.6-.4.4-1.6c.1-.5.6-.7 1-.6l1.6.4 1.2-1.2c.3-.3.9-.3 1.2 0l1.2 1.2 1.6-.4c.4-.1.9.1 1 .6l.4 1.6 1.6.4c.5.1.7.6.6 1l-.4 1.6Zm-7.2 4.6-.6.2c-.2 0-.4 0-.6-.2l-2-2a.8.8 0 1 1 1.2-1.2l1.4 1.5 3.8-3.9a.8.8 0 1 1 1.2 1.2l-2.2 2.2-2.2 2.2Z" fill="#007BFC" style="fill-opacity:1"/></svg>
