<svg xmlns="http://www.w3.org/2000/svg" viewBox="0 0 36 36"><path d="M25.62 25.86c-.69.67-1.27 1.23-1.75 1.68-1.66 1.56-3.7 2.38-6.14 2.44-2.56.06-5.09.12-7.16-.89-3.75-1.82-4.67-5.14-4.62-9.26.02-1.96.07-3.74.13-5.35.11-2.58.95-4.63 2.51-6.15 1.56-1.51 3.63-2.29 6.21-2.32 1.61-.02 3.4-.01 5.36.02 4.12.07 7.41 1.09 9.13 4.89.95 2.1.82 4.62.68 7.18-.13 2.43-1.01 4.45-2.62 6.06-.46.46-1.04 1.03-1.73 1.7ZM9.87 9.85c-.87.87-1.38 1.77-1.53 2.72-.42 2.6-.52 5.6-.28 9.01.2 2.8 1.4 5.01 3.97 5.93 1.69.6 3.34.67 4.96.22.42-.12.73-.5.75-.94.13-2.66-.09-4.88 2.04-7.01 2.13-2.12 4.36-1.9 7.01-2.02.44-.02.82-.32.94-.75.45-1.62.38-3.27-.2-4.96-.91-2.58-3.12-3.78-5.92-3.99-3.41-.25-6.41-.16-9.01.26-.95.15-1.86.66-2.73 1.53Zm9.95 17.76c0 .06.02.08.08.06 1.17-.52 2.23-1.23 3.17-2.14 1.72-1.66 2.97-2.91 3.74-3.74.34-.36.58-.91.74-1.66.04-.18-.04-.27-.24-.27-.04 0-1.04.07-3.02.22-2.72.2-4.15 1.62-4.27 4.27-.03.71-.1 1.8-.2 3.27Z" style="fill:#0e0e0e;stroke-width:0"/></svg>
