<svg xmlns="http://www.w3.org/2000/svg" viewBox="0 0 36 36"><path d="M18 5.99c.7 0 1.04.59 1.03 1.77-.04 3.03-.04 6.06-.01 9.09 0 .02 0 .04.01.05 0 .02.02.03.03.04 0 .01.02.02.04.03.02 0 .03.01.05.01 3.03.03 6.06.02 9.09-.02 1.18-.01 1.77.33 1.77 1.03s-.59 1.04-1.77 1.03c-3.03-.04-6.06-.04-9.09-.01-.02 0-.04 0-.05.01s-.03.02-.04.03c-.01 0-.02.02-.03.04 0 .02-.01.03-.01.05-.03 3.03-.02 6.06.01 9.09C19.04 29.41 18.7 30 18 30s-1.04-.58-1.03-1.76c.04-3.03.04-6.06.01-9.09 0-.02 0-.04-.01-.05 0-.02-.02-.03-.03-.04 0-.01-.02-.02-.04-.03s-.03-.01-.05-.01c-3.03-.03-6.06-.02-9.09.02-1.18.01-1.77-.33-1.77-1.03s.59-1.04 1.77-1.03c3.03.04 6.06.04 9.09.01.02 0 .04 0 .05-.01.02 0 .03-.02.04-.03.01 0 .02-.02.03-.04 0-.02.01-.03.01-.05.03-3.03.02-6.06-.01-9.09C16.96 6.59 17.3 6 18 6Z" style="fill:#f9fbfa;stroke-width:0"/></svg>
